<?xml version="1.0" encoding="UTF-8" standalone="no"?>
<!-- Created with Inkscape (http://www.inkscape.org/) -->

<svg
   version="1.1"
   id="svg1"
   width="312.64636"
   height="275.78632"
   viewBox="0 0 312.64637 275.78634"
   sodipodi:docname="Bidirectional_DC_control.svg"
   inkscape:version="1.4 (e7c3feb100, 2024-10-09)"
   xmlns:inkscape="http://www.inkscape.org/namespaces/inkscape"
   xmlns:sodipodi="http://sodipodi.sourceforge.net/DTD/sodipodi-0.dtd"
   xmlns="http://www.w3.org/2000/svg"
   xmlns:svg="http://www.w3.org/2000/svg">
  <defs
     id="defs1">
    <clipPath
       clipPathUnits="userSpaceOnUse"
       id="clipPath3">
      <path
         d="M 0,0.028 H 595.247 V 841.889 H 0 Z"
         transform="translate(0,1.1220472e-5)"
         clip-rule="evenodd"
         id="path3" />
    </clipPath>
  </defs>
  <sodipodi:namedview
     id="namedview1"
     pagecolor="#ffffff"
     bordercolor="#000000"
     borderopacity="0.25"
     inkscape:showpageshadow="2"
     inkscape:pageopacity="0.0"
     inkscape:pagecheckerboard="0"
     inkscape:deskcolor="#d1d1d1"
     showgrid="false"
     inkscape:zoom="1.6303833"
     inkscape:cx="147.818"
     inkscape:cy="123.59057"
     inkscape:window-width="1872"
     inkscape:window-height="982"
     inkscape:window-x="22"
     inkscape:window-y="72"
     inkscape:window-maximized="1"
     inkscape:current-layer="g1">
    <inkscape:page
       x="1.4806082e-13"
       y="7.7082518e-08"
       width="312.64636"
       height="275.78635"
       id="page2"
       margin="0"
       bleed="0" />
  </sodipodi:namedview>
  <g
     id="g1"
     inkscape:groupmode="layer"
     inkscape:label="1"
     transform="translate(-247.0658,-500.52725)">
    <rect
       style="fill:white;stroke-width:3.57543;stroke-miterlimit:3.9"
       id="rect1"
       width="312.64636"
       height="275.78632"
       x="247.0658"
       y="500.52725" />
    <g
       id="g45">
      <path
         id="path46"
         d="m 345.685,338.598 h 7.484"
         style="fill:none;stroke:black;stroke-width:0.45353;stroke-linecap:round;stroke-linejoin:round;stroke-miterlimit:10;stroke-dasharray:none;stroke-opacity:1"
         transform="matrix(1.3333333,0,0,-1.3333333,0,1122.5197)" />
      <path
         id="path47"
         d="M 240.208,338.598 V 445.492"
         style="fill:none;stroke:black;stroke-width:0.45353;stroke-linecap:round;stroke-linejoin:round;stroke-miterlimit:10;stroke-dasharray:none;stroke-opacity:1"
         transform="matrix(1.3333333,0,0,-1.3333333,0,1122.5197)" />
    </g>
    <g
       id="g47">
      <path
         id="path48"
         d="m 300.161,412.837 h -3.487"
         style="fill:none;stroke:black;stroke-width:1.38895;stroke-linecap:round;stroke-linejoin:round;stroke-miterlimit:10;stroke-dasharray:none;stroke-opacity:1"
         transform="matrix(1.3333333,0,0,-1.3333333,0,1122.5197)" />
      <path
         id="path49"
         d="m 296.674,412.837 v -5.981"
         style="fill:none;stroke:black;stroke-width:1.38895;stroke-linecap:round;stroke-linejoin:round;stroke-miterlimit:10;stroke-dasharray:none;stroke-opacity:1"
         transform="matrix(1.3333333,0,0,-1.3333333,0,1122.5197)" />
      <path
         id="path50"
         d="m 296.674,406.856 h 3.487 z"
         style="fill:none;stroke:black;stroke-width:1.38895;stroke-linecap:round;stroke-linejoin:round;stroke-miterlimit:10;stroke-dasharray:none;stroke-opacity:1"
         transform="matrix(1.3333333,0,0,-1.3333333,0,1122.5197)" />
      <path
         id="path51"
         d="m 317.509,409.889 c 0,4.876 -4.026,8.901 -8.958,8.901 -4.875,0 -8.901,-4.025 -8.901,-8.901 0,-4.961 4.026,-8.929 8.901,-8.929 4.932,0 8.958,3.968 8.958,8.929 z"
         style="fill:none;stroke:black;stroke-width:1.38895;stroke-linecap:round;stroke-linejoin:round;stroke-miterlimit:10;stroke-dasharray:none;stroke-opacity:1"
         transform="matrix(1.3333333,0,0,-1.3333333,0,1122.5197)" />
      <path
         id="path52"
         d="m 316.998,406.856 h 3.459"
         style="fill:none;stroke:black;stroke-width:1.38895;stroke-linecap:round;stroke-linejoin:round;stroke-miterlimit:10;stroke-dasharray:none;stroke-opacity:1"
         transform="matrix(1.3333333,0,0,-1.3333333,0,1122.5197)" />
      <path
         id="path53"
         d="m 320.457,406.856 v 5.981"
         style="fill:none;stroke:black;stroke-width:1.38895;stroke-linecap:round;stroke-linejoin:round;stroke-miterlimit:10;stroke-dasharray:none;stroke-opacity:1"
         transform="matrix(1.3333333,0,0,-1.3333333,0,1122.5197)" />
      <path
         id="path54"
         d="m 320.457,412.837 h -3.459"
         style="fill:none;stroke:black;stroke-width:1.38895;stroke-linecap:round;stroke-linejoin:round;stroke-miterlimit:10;stroke-dasharray:none;stroke-opacity:1"
         transform="matrix(1.3333333,0,0,-1.3333333,0,1122.5197)" />
    </g>
    <g
       id="g54">
      <path
         id="path55"
         d="m 315.78,418.79 1.502,2.551 3.118,-3.543 z"
         style="fill:none;stroke:black;stroke-width:0.45353;stroke-linecap:round;stroke-linejoin:round;stroke-miterlimit:10;stroke-dasharray:none;stroke-opacity:1"
         transform="matrix(1.3333333,0,0,-1.3333333,0,1122.5197)" />
    </g>
    <g
       id="g55">
      <path
         id="path56"
         d="m 315.78,418.79 1.502,2.551 3.118,-3.543 z"
         style="fill:black;fill-opacity:1;fill-rule:evenodd;stroke:black;stroke-width:0.45353;stroke-linecap:round;stroke-linejoin:round;stroke-miterlimit:10;stroke-dasharray:none;stroke-opacity:1"
         transform="matrix(1.3333333,0,0,-1.3333333,0,1122.5197)" />
    </g>
    <g
       id="g56">
      <path
         id="path57"
         d="m 316.517,420.009 c -2.382,1.757 -5.273,2.664 -8.221,2.664 -2.891,0 -5.669,-0.85 -7.994,-2.551"
         style="fill:none;stroke:black;stroke-width:0.45353;stroke-linecap:round;stroke-linejoin:round;stroke-miterlimit:10;stroke-dasharray:none;stroke-opacity:1"
         transform="matrix(1.3333333,0,0,-1.3333333,0,1122.5197)" />
      <path
         id="path58"
         d="m 275.868,403.908 v 5.953"
         style="fill:none;stroke:black;stroke-width:0.45353;stroke-linecap:round;stroke-linejoin:round;stroke-miterlimit:10;stroke-dasharray:none;stroke-opacity:1"
         transform="matrix(1.3333333,0,0,-1.3333333,0,1122.5197)" />
      <path
         id="path59"
         d="M 275.868,445.492 V 411.335"
         style="fill:none;stroke:black;stroke-width:0.45353;stroke-linecap:round;stroke-linejoin:round;stroke-miterlimit:10;stroke-dasharray:none;stroke-opacity:1"
         transform="matrix(1.3333333,0,0,-1.3333333,0,1122.5197)" />
      <path
         id="path60"
         d="m 341.263,413.659 v 14.003"
         style="fill:none;stroke:black;stroke-width:0.45353;stroke-linecap:round;stroke-linejoin:round;stroke-miterlimit:10;stroke-dasharray:none;stroke-opacity:1"
         transform="matrix(1.3333333,0,0,-1.3333333,0,1122.5197)" />
      <path
         id="path61"
         d="M 231.307,445.492 H 341.263"
         style="fill:none;stroke:black;stroke-width:0.45353;stroke-linecap:round;stroke-linejoin:round;stroke-miterlimit:10;stroke-dasharray:none;stroke-opacity:1"
         transform="matrix(1.3333333,0,0,-1.3333333,0,1122.5197)" />
      <path
         id="path62"
         d="m 353.169,409.861 v -35.66"
         style="fill:none;stroke:black;stroke-width:0.45353;stroke-linecap:round;stroke-linejoin:round;stroke-miterlimit:10;stroke-dasharray:none;stroke-opacity:1"
         transform="matrix(1.3333333,0,0,-1.3333333,0,1122.5197)" />
      <path
         id="path63"
         d="m 317.48,338.598 v 35.603"
         style="fill:none;stroke:black;stroke-width:0.45353;stroke-linecap:round;stroke-linejoin:round;stroke-miterlimit:10;stroke-dasharray:none;stroke-opacity:1"
         transform="matrix(1.3333333,0,0,-1.3333333,0,1122.5197)" />
      <path
         id="path64"
         d="M 353.169,374.201 H 317.48"
         style="fill:none;stroke:black;stroke-width:0.45353;stroke-linecap:round;stroke-linejoin:round;stroke-miterlimit:10;stroke-dasharray:none;stroke-opacity:1"
         transform="matrix(1.3333333,0,0,-1.3333333,0,1122.5197)" />
      <path
         id="path65"
         d="m 317.48,338.598 h 9.95"
         style="fill:none;stroke:black;stroke-width:0.45353;stroke-linecap:round;stroke-linejoin:round;stroke-miterlimit:10;stroke-dasharray:none;stroke-opacity:1"
         transform="matrix(1.3333333,0,0,-1.3333333,0,1122.5197)" />
      <path
         id="path66"
         d="m 359.065,338.598 v 32.655"
         style="fill:none;stroke:black;stroke-width:0.45353;stroke-linecap:round;stroke-linejoin:round;stroke-miterlimit:10;stroke-dasharray:none;stroke-opacity:1"
         transform="matrix(1.3333333,0,0,-1.3333333,0,1122.5197)" />
    </g>
    <g
       id="g66">
      <path
         id="path67"
         d="M 364.989,314.872 V 362.38"
         style="fill:none;stroke:black;stroke-width:1.38895;stroke-linecap:round;stroke-linejoin:round;stroke-miterlimit:10;stroke-dasharray:7.17153, 2.38106;stroke-dashoffset:0;stroke-opacity:1"
         transform="matrix(1.3333333,0,0,-1.3333333,0,1122.5197)" />
    </g>
    <g
       id="g67">
      <path
         id="path68"
         d="m 365.017,350.503 h 14.854"
         style="fill:none;stroke:black;stroke-width:0.45353;stroke-linecap:round;stroke-linejoin:round;stroke-miterlimit:10;stroke-dasharray:none;stroke-opacity:1"
         transform="matrix(1.3333333,0,0,-1.3333333,0,1122.5197)" />
      <path
         id="path69"
         d="m 353.169,338.598 h 5.896"
         style="fill:none;stroke:black;stroke-width:0.45353;stroke-linecap:round;stroke-linejoin:round;stroke-miterlimit:10;stroke-dasharray:none;stroke-opacity:1"
         transform="matrix(1.3333333,0,0,-1.3333333,0,1122.5197)" />
      <path
         id="path70"
         d="M 263.962,409.889 V 374.201"
         style="fill:none;stroke:black;stroke-width:0.45353;stroke-linecap:round;stroke-linejoin:round;stroke-miterlimit:10;stroke-dasharray:none;stroke-opacity:1"
         transform="matrix(1.3333333,0,0,-1.3333333,0,1122.5197)" />
      <path
         id="path71"
         d="m 296.702,409.889 h -32.74"
         style="fill:none;stroke:black;stroke-width:0.45353;stroke-linecap:round;stroke-linejoin:round;stroke-miterlimit:10;stroke-dasharray:none;stroke-opacity:1"
         transform="matrix(1.3333333,0,0,-1.3333333,0,1122.5197)" />
    </g>
    <g
       id="g71">
      <path
         id="path72"
         d="M 252.113,362.38 V 314.872"
         style="fill:none;stroke:black;stroke-width:1.38895;stroke-linecap:round;stroke-linejoin:round;stroke-miterlimit:10;stroke-dasharray:7.17153, 2.38106;stroke-dashoffset:0;stroke-opacity:1"
         transform="matrix(1.3333333,0,0,-1.3333333,0,1122.5197)" />
    </g>
    <g
       id="g72">
      <path
         id="path73"
         d="m 258.038,338.598 v 32.683"
         style="fill:none;stroke:black;stroke-width:0.45353;stroke-linecap:round;stroke-linejoin:round;stroke-miterlimit:10;stroke-dasharray:none;stroke-opacity:1"
         transform="matrix(1.3333333,0,0,-1.3333333,0,1122.5197)" />
      <path
         id="path74"
         d="M 252.142,338.598 H 240.208"
         style="fill:none;stroke:black;stroke-width:0.45353;stroke-linecap:round;stroke-linejoin:round;stroke-miterlimit:10;stroke-dasharray:none;stroke-opacity:1"
         transform="matrix(1.3333333,0,0,-1.3333333,0,1122.5197)" />
    </g>
    <g
       id="g74">
      <path
         id="path75"
         d="M 252.113,362.38 H 365.017"
         style="fill:none;stroke:black;stroke-width:1.38895;stroke-linecap:round;stroke-linejoin:round;stroke-miterlimit:10;stroke-dasharray:7.17153, 2.38106;stroke-dashoffset:0;stroke-opacity:1"
         transform="matrix(1.3333333,0,0,-1.3333333,0,1122.5197)" />
      <path
         id="path76"
         d="M 252.113,314.843 H 365.017"
         style="fill:none;stroke:black;stroke-width:1.38895;stroke-linecap:round;stroke-linejoin:round;stroke-miterlimit:10;stroke-dasharray:7.17153, 2.38106;stroke-dashoffset:0;stroke-opacity:1"
         transform="matrix(1.3333333,0,0,-1.3333333,0,1122.5197)" />
    </g>
    <g
       id="g76">
      <path
         id="path77"
         d="M 353.169,409.861 H 320.457"
         style="fill:none;stroke:black;stroke-width:0.45353;stroke-linecap:round;stroke-linejoin:round;stroke-miterlimit:10;stroke-dasharray:none;stroke-opacity:1"
         transform="matrix(1.3333333,0,0,-1.3333333,0,1122.5197)" />
      <path
         id="path78"
         d="M 299.622,374.201 V 338.598"
         style="fill:none;stroke:black;stroke-width:0.45353;stroke-linecap:round;stroke-linejoin:round;stroke-miterlimit:10;stroke-dasharray:none;stroke-opacity:1"
         transform="matrix(1.3333333,0,0,-1.3333333,0,1122.5197)" />
      <path
         id="path79"
         d="m 263.962,374.201 h 35.66"
         style="fill:none;stroke:black;stroke-width:0.45353;stroke-linecap:round;stroke-linejoin:round;stroke-miterlimit:10;stroke-dasharray:none;stroke-opacity:1"
         transform="matrix(1.3333333,0,0,-1.3333333,0,1122.5197)" />
      <path
         id="path80"
         d="m 292.195,338.598 h 7.427"
         style="fill:none;stroke:black;stroke-width:0.45353;stroke-linecap:round;stroke-linejoin:round;stroke-miterlimit:10;stroke-dasharray:none;stroke-opacity:1"
         transform="matrix(1.3333333,0,0,-1.3333333,0,1122.5197)" />
      <path
         id="path81"
         d="m 258.009,338.598 h 13.38"
         style="fill:none;stroke:black;stroke-width:0.45353;stroke-linecap:round;stroke-linejoin:round;stroke-miterlimit:10;stroke-dasharray:none;stroke-opacity:1"
         transform="matrix(1.3333333,0,0,-1.3333333,0,1122.5197)" />
      <path
         id="path82"
         d="M 379.871,320.796 H 275.868"
         style="fill:none;stroke:black;stroke-width:0.45353;stroke-linecap:round;stroke-linejoin:round;stroke-miterlimit:10;stroke-dasharray:none;stroke-opacity:1"
         transform="matrix(1.3333333,0,0,-1.3333333,0,1122.5197)" />
      <path
         id="path83"
         d="M 275.868,331.624 V 320.796"
         style="fill:none;stroke:black;stroke-width:0.45353;stroke-linecap:round;stroke-linejoin:round;stroke-miterlimit:10;stroke-dasharray:none;stroke-opacity:1"
         transform="matrix(1.3333333,0,0,-1.3333333,0,1122.5197)" />
      <path
         id="path84"
         d="M 341.263,331.624 V 320.796"
         style="fill:none;stroke:black;stroke-width:0.45353;stroke-linecap:round;stroke-linejoin:round;stroke-miterlimit:10;stroke-dasharray:none;stroke-opacity:1"
         transform="matrix(1.3333333,0,0,-1.3333333,0,1122.5197)" />
      <path
         id="path85"
         d="m 308.551,314.843 v -7.086"
         style="fill:none;stroke:black;stroke-width:0.45353;stroke-linecap:round;stroke-linejoin:round;stroke-miterlimit:10;stroke-dasharray:none;stroke-opacity:1"
         transform="matrix(1.3333333,0,0,-1.3333333,0,1122.5197)" />
      <path
         id="path86"
         d="m 341.263,392.002 v -7.086"
         style="fill:none;stroke:black;stroke-width:0.45353;stroke-linecap:round;stroke-linejoin:round;stroke-miterlimit:10;stroke-dasharray:none;stroke-opacity:1"
         transform="matrix(1.3333333,0,0,-1.3333333,0,1122.5197)" />
      <path
         id="path87"
         d="m 275.868,392.002 v -7.086"
         style="fill:none;stroke:black;stroke-width:0.45353;stroke-linecap:round;stroke-linejoin:round;stroke-miterlimit:10;stroke-dasharray:none;stroke-opacity:1"
         transform="matrix(1.3333333,0,0,-1.3333333,0,1122.5197)" />
      <path
         id="path88"
         d="m 275.868,409.861 v 5.896"
         style="fill:none;stroke:black;stroke-width:0.45353;stroke-linecap:round;stroke-linejoin:round;stroke-miterlimit:10;stroke-dasharray:none;stroke-opacity:1"
         transform="matrix(1.3333333,0,0,-1.3333333,0,1122.5197)" />
      <path
         id="path89"
         d="m 341.263,401.583 v 43.909"
         style="fill:none;stroke:black;stroke-width:0.45353;stroke-linecap:round;stroke-linejoin:round;stroke-miterlimit:10;stroke-dasharray:none;stroke-opacity:1"
         transform="matrix(1.3333333,0,0,-1.3333333,0,1122.5197)" />
      <path
         id="path90"
         d="m 302.287,424.317 -1.474,2.608 -3.119,-3.515 z"
         style="fill:none;stroke:black;stroke-width:0.45353;stroke-linecap:round;stroke-linejoin:round;stroke-miterlimit:10;stroke-dasharray:none;stroke-opacity:1"
         transform="matrix(1.3333333,0,0,-1.3333333,0,1122.5197)" />
    </g>
    <g
       id="g90">
      <path
         id="path91"
         d="m 302.315,424.317 -1.474,2.637 -3.147,-3.544 z"
         style="fill:black;fill-opacity:1;fill-rule:evenodd;stroke:none"
         transform="matrix(1.3333333,0,0,-1.3333333,0,1122.5197)" />
    </g>
    <g
       id="g91">
      <path
         id="path92"
         d="m 302.315,424.317 -1.474,2.637 -3.147,-3.544 z"
         style="fill:none;stroke:black;stroke-width:0.45353;stroke-linecap:round;stroke-linejoin:round;stroke-miterlimit:10;stroke-dasharray:none;stroke-opacity:1"
         transform="matrix(1.3333333,0,0,-1.3333333,0,1122.5197)" />
    </g>
    <g
       id="g92">
      <path
         id="path93"
         d="m 316.545,424.544 c -2.41,1.758 -5.301,2.693 -8.249,2.693 -2.891,0 -5.669,-0.879 -7.994,-2.579 z"
         style="fill:none;stroke:black;stroke-width:0.45353;stroke-linecap:round;stroke-linejoin:round;stroke-miterlimit:10;stroke-dasharray:none;stroke-opacity:1"
         transform="matrix(1.3333333,0,0,-1.3333333,0,1122.5197)" />
    </g>
    <g
       id="g93">
      <path
         id="path94"
         d="m 257.953,374.116 c 1.53,-0.029 2.749,-1.276 2.749,-2.778 0,-1.588 -1.247,-2.806 -2.778,-2.806 -1.559,0 -2.806,1.218 -2.806,2.806 0,1.531 1.247,2.778 2.806,2.778 z"
         style="fill:white;fill-opacity:1;fill-rule:evenodd;stroke:black;stroke-width:0.45353;stroke-linecap:round;stroke-linejoin:round;stroke-miterlimit:10;stroke-dasharray:none;stroke-opacity:1"
         transform="matrix(1.3333333,0,0,-1.3333333,0,1122.5197)" />
    </g>
    <g
       id="g94">
      <path
         id="path95"
         d="m 358.98,374.116 c 1.502,-0.029 2.749,-1.276 2.749,-2.778 0,-1.588 -1.247,-2.806 -2.778,-2.806 -1.559,0 -2.806,1.218 -2.806,2.806 0,1.531 1.247,2.778 2.806,2.778 z"
         style="fill:white;fill-opacity:1;fill-rule:evenodd;stroke:black;stroke-width:0.45353;stroke-linecap:round;stroke-linejoin:round;stroke-miterlimit:10;stroke-dasharray:none;stroke-opacity:1"
         transform="matrix(1.3333333,0,0,-1.3333333,0,1122.5197)" />
    </g>
    <g
       id="g95">
      <path
         id="path96"
         d="m 379.786,353.366 c 1.531,-0.028 2.749,-1.275 2.749,-2.778 0,-1.53 -1.247,-2.806 -2.778,-2.806 -1.559,0 -2.806,1.276 -2.806,2.806 0,1.531 1.247,2.778 2.806,2.778 z"
         style="fill:white;fill-opacity:1;fill-rule:evenodd;stroke:black;stroke-width:0.45353;stroke-linecap:round;stroke-linejoin:round;stroke-miterlimit:10;stroke-dasharray:none;stroke-opacity:1"
         transform="matrix(1.3333333,0,0,-1.3333333,0,1122.5197)" />
    </g>
    <g
       id="g96">
      <path
         id="path97"
         d="m 379.786,323.659 c 1.531,-0.028 2.749,-1.276 2.749,-2.778 0,-1.531 -1.247,-2.806 -2.778,-2.806 -1.559,0 -2.806,1.275 -2.806,2.806 0,1.531 1.247,2.778 2.806,2.778 z"
         style="fill:white;fill-opacity:1;fill-rule:evenodd;stroke:black;stroke-width:0.45353;stroke-linecap:round;stroke-linejoin:round;stroke-miterlimit:10;stroke-dasharray:none;stroke-opacity:1"
         transform="matrix(1.3333333,0,0,-1.3333333,0,1122.5197)" />
    </g>
    <g
       id="g97">
      <path
         id="path98"
         d="m 231.194,448.327 h 0.028 c 1.531,0 2.778,-1.247 2.778,-2.807 0,-1.559 -1.247,-2.777 -2.778,-2.777 -1.531,0 -2.806,1.218 -2.806,2.777 0,1.531 1.247,2.778 2.778,2.807 z"
         style="fill:white;fill-opacity:1;fill-rule:evenodd;stroke:black;stroke-width:0.45353;stroke-linecap:round;stroke-linejoin:round;stroke-miterlimit:10;stroke-dasharray:none;stroke-opacity:1"
         transform="matrix(1.3333333,0,0,-1.3333333,0,1122.5197)" />
    </g>
    <g
       id="g98">
      <path
         id="path99"
         d="m 266.513,323.914 v 29.395 l 25.711,-14.711 z"
         style="fill:white;fill-opacity:1;fill-rule:evenodd;stroke:black;stroke-width:1.38895;stroke-linecap:round;stroke-linejoin:round;stroke-miterlimit:10;stroke-dasharray:none;stroke-opacity:1"
         transform="matrix(1.3333333,0,0,-1.3333333,0,1122.5197)" />
    </g>
    <g
       id="g99">
      <path
         id="path100"
         d="m 350.674,353.309 v -29.395 l -25.71,14.684 z"
         style="fill:white;fill-opacity:1;fill-rule:evenodd;stroke:black;stroke-width:1.38895;stroke-linecap:round;stroke-linejoin:round;stroke-miterlimit:10;stroke-dasharray:none;stroke-opacity:1"
         transform="matrix(1.3333333,0,0,-1.3333333,0,1122.5197)" />
    </g>
    <g
       id="g100">
      <path
         id="path101"
         d="m 274.677,379.445 h 2.438"
         style="fill:none;stroke:black;stroke-width:0.45353;stroke-linecap:round;stroke-linejoin:round;stroke-miterlimit:10;stroke-dasharray:none;stroke-opacity:1"
         transform="matrix(1.3333333,0,0,-1.3333333,0,1122.5197)" />
      <path
         id="path102"
         d="M 278.759,382.223 H 272.92"
         style="fill:none;stroke:black;stroke-width:0.45353;stroke-linecap:round;stroke-linejoin:round;stroke-miterlimit:10;stroke-dasharray:none;stroke-opacity:1"
         transform="matrix(1.3333333,0,0,-1.3333333,0,1122.5197)" />
      <path
         id="path103"
         d="m 271.389,384.944 h 8.957 z"
         style="fill:none;stroke:black;stroke-width:0.45353;stroke-linecap:round;stroke-linejoin:round;stroke-miterlimit:10;stroke-dasharray:none;stroke-opacity:1"
         transform="matrix(1.3333333,0,0,-1.3333333,0,1122.5197)" />
      <path
         id="path104"
         d="m 275.868,384.944 h -4.479 z"
         style="fill:none;stroke:black;stroke-width:0.45353;stroke-linecap:round;stroke-linejoin:round;stroke-miterlimit:10;stroke-dasharray:none;stroke-opacity:1"
         transform="matrix(1.3333333,0,0,-1.3333333,0,1122.5197)" />
      <path
         id="path105"
         d="m 340.072,379.445 h 2.438"
         style="fill:none;stroke:black;stroke-width:0.45353;stroke-linecap:round;stroke-linejoin:round;stroke-miterlimit:10;stroke-dasharray:none;stroke-opacity:1"
         transform="matrix(1.3333333,0,0,-1.3333333,0,1122.5197)" />
      <path
         id="path106"
         d="m 344.154,382.223 h -5.782"
         style="fill:none;stroke:black;stroke-width:0.45353;stroke-linecap:round;stroke-linejoin:round;stroke-miterlimit:10;stroke-dasharray:none;stroke-opacity:1"
         transform="matrix(1.3333333,0,0,-1.3333333,0,1122.5197)" />
      <path
         id="path107"
         d="m 336.784,384.944 h 8.958 z"
         style="fill:none;stroke:black;stroke-width:0.45353;stroke-linecap:round;stroke-linejoin:round;stroke-miterlimit:10;stroke-dasharray:none;stroke-opacity:1"
         transform="matrix(1.3333333,0,0,-1.3333333,0,1122.5197)" />
      <path
         id="path108"
         d="m 341.263,384.944 h -4.479 z"
         style="fill:none;stroke:black;stroke-width:0.45353;stroke-linecap:round;stroke-linejoin:round;stroke-miterlimit:10;stroke-dasharray:none;stroke-opacity:1"
         transform="matrix(1.3333333,0,0,-1.3333333,0,1122.5197)" />
      <path
         id="path109"
         d="m 307.332,302.258 h 2.495"
         style="fill:none;stroke:black;stroke-width:0.45353;stroke-linecap:round;stroke-linejoin:round;stroke-miterlimit:10;stroke-dasharray:none;stroke-opacity:1"
         transform="matrix(1.3333333,0,0,-1.3333333,0,1122.5197)" />
      <path
         id="path110"
         d="m 311.471,304.979 h -5.84"
         style="fill:none;stroke:black;stroke-width:0.45353;stroke-linecap:round;stroke-linejoin:round;stroke-miterlimit:10;stroke-dasharray:none;stroke-opacity:1"
         transform="matrix(1.3333333,0,0,-1.3333333,0,1122.5197)" />
      <path
         id="path111"
         d="m 304.044,307.757 h 9.014 z"
         style="fill:none;stroke:black;stroke-width:0.45353;stroke-linecap:round;stroke-linejoin:round;stroke-miterlimit:10;stroke-dasharray:none;stroke-opacity:1"
         transform="matrix(1.3333333,0,0,-1.3333333,0,1122.5197)" />
      <path
         id="path112"
         d="m 308.523,307.757 h -4.479"
         style="fill:none;stroke:black;stroke-width:0.45353;stroke-linecap:round;stroke-linejoin:round;stroke-miterlimit:10;stroke-dasharray:none;stroke-opacity:1"
         transform="matrix(1.3333333,0,0,-1.3333333,0,1122.5197)" />
    </g>
    <g
       id="g112">
      <path
         id="path113"
         d="m 275.839,432.226 5.386,-9.439 h -10.743 z"
         style="fill:black;fill-opacity:1;fill-rule:evenodd;stroke:black;stroke-width:0.45353;stroke-linecap:round;stroke-linejoin:round;stroke-miterlimit:10;stroke-dasharray:none;stroke-opacity:1"
         transform="matrix(1.3333333,0,0,-1.3333333,0,1122.5197)" />
    </g>
    <g
       id="g113">
      <path
         id="path114"
         d="M 275.896,434.494 V 417.911"
         style="fill:none;stroke:black;stroke-width:0.45353;stroke-linecap:round;stroke-linejoin:round;stroke-miterlimit:10;stroke-dasharray:none;stroke-opacity:1"
         transform="matrix(1.3333333,0,0,-1.3333333,0,1122.5197)" />
      <path
         id="path115"
         d="M 281.339,432.113 H 270.482 Z"
         style="fill:none;stroke:black;stroke-width:0.45353;stroke-linecap:round;stroke-linejoin:round;stroke-miterlimit:10;stroke-dasharray:none;stroke-opacity:1"
         transform="matrix(1.3333333,0,0,-1.3333333,0,1122.5197)" />
    </g>
    <g
       id="g115">
      <path
         id="path116"
         d="m 275.839,401.612 5.386,-9.44 h -10.743 z"
         style="fill:black;fill-opacity:1;fill-rule:evenodd;stroke:black;stroke-width:0.45353;stroke-linecap:round;stroke-linejoin:round;stroke-miterlimit:10;stroke-dasharray:none;stroke-opacity:1"
         transform="matrix(1.3333333,0,0,-1.3333333,0,1122.5197)" />
    </g>
    <g
       id="g116">
      <path
         id="path117"
         d="M 275.896,403.936 V 387.354"
         style="fill:none;stroke:black;stroke-width:0.45353;stroke-linecap:round;stroke-linejoin:round;stroke-miterlimit:10;stroke-dasharray:none;stroke-opacity:1"
         transform="matrix(1.3333333,0,0,-1.3333333,0,1122.5197)" />
      <path
         id="path118"
         d="M 281.339,401.555 H 270.482 Z"
         style="fill:none;stroke:black;stroke-width:0.45353;stroke-linecap:round;stroke-linejoin:round;stroke-miterlimit:10;stroke-dasharray:none;stroke-opacity:1"
         transform="matrix(1.3333333,0,0,-1.3333333,0,1122.5197)" />
    </g>
    <g
       id="g118">
      <path
         id="path119"
         d="m 341.206,432.226 5.386,-9.439 h -10.743 z"
         style="fill:black;fill-opacity:1;fill-rule:evenodd;stroke:black;stroke-width:0.45353;stroke-linecap:round;stroke-linejoin:round;stroke-miterlimit:10;stroke-dasharray:none;stroke-opacity:1"
         transform="matrix(1.3333333,0,0,-1.3333333,0,1122.5197)" />
    </g>
    <g
       id="g119">
      <path
         id="path120"
         d="M 341.263,434.494 V 417.911"
         style="fill:none;stroke:black;stroke-width:0.45353;stroke-linecap:round;stroke-linejoin:round;stroke-miterlimit:10;stroke-dasharray:none;stroke-opacity:1"
         transform="matrix(1.3333333,0,0,-1.3333333,0,1122.5197)" />
      <path
         id="path121"
         d="M 346.706,432.113 H 335.849 Z"
         style="fill:none;stroke:black;stroke-width:0.45353;stroke-linecap:round;stroke-linejoin:round;stroke-miterlimit:10;stroke-dasharray:none;stroke-opacity:1"
         transform="matrix(1.3333333,0,0,-1.3333333,0,1122.5197)" />
    </g>
    <g
       id="g121">
      <path
         id="path122"
         d="m 341.206,401.612 5.386,-9.44 h -10.743 z"
         style="fill:black;fill-opacity:1;fill-rule:evenodd;stroke:black;stroke-width:0.45353;stroke-linecap:round;stroke-linejoin:round;stroke-miterlimit:10;stroke-dasharray:none;stroke-opacity:1"
         transform="matrix(1.3333333,0,0,-1.3333333,0,1122.5197)" />
    </g>
    <g
       id="g122">
      <path
         id="path123"
         d="M 341.263,403.936 V 387.354"
         style="fill:none;stroke:black;stroke-width:0.45353;stroke-linecap:round;stroke-linejoin:round;stroke-miterlimit:10;stroke-dasharray:none;stroke-opacity:1"
         transform="matrix(1.3333333,0,0,-1.3333333,0,1122.5197)" />
      <path
         id="path124"
         d="M 346.706,401.555 H 335.849 Z"
         style="fill:none;stroke:black;stroke-width:0.45353;stroke-linecap:round;stroke-linejoin:round;stroke-miterlimit:10;stroke-dasharray:none;stroke-opacity:1"
         transform="matrix(1.3333333,0,0,-1.3333333,0,1122.5197)" />
    </g>
    <g
       id="g124">
      <path
         id="path125"
         d="m 275.896,447.59 c 1.162,0 2.098,-0.936 2.098,-2.098 0,-1.134 -0.936,-2.126 -2.098,-2.126 -1.19,0 -2.126,0.992 -2.126,2.126 0,1.162 0.936,2.098 2.126,2.098 z"
         style="fill:black;fill-opacity:1;fill-rule:evenodd;stroke:black;stroke-width:0.96376;stroke-linecap:round;stroke-linejoin:round;stroke-miterlimit:10;stroke-dasharray:none;stroke-opacity:1"
         transform="matrix(1.3333333,0,0,-1.3333333,0,1122.5197)" />
    </g>
    <g
       id="g125">
      <path
         id="path126"
         d="m 240.151,447.59 c 1.191,0 2.126,-0.936 2.126,-2.098 0,-1.134 -0.935,-2.126 -2.126,-2.126 -1.162,0 -2.097,0.992 -2.097,2.126 0,1.162 0.935,2.098 2.097,2.098 z"
         style="fill:black;fill-opacity:1;fill-rule:evenodd;stroke:black;stroke-width:0.96376;stroke-linecap:round;stroke-linejoin:round;stroke-miterlimit:10;stroke-dasharray:none;stroke-opacity:1"
         transform="matrix(1.3333333,0,0,-1.3333333,0,1122.5197)" />
    </g>
    <g
       id="g126">
      <path
         id="path127"
         d="m 341.206,322.922 c 1.191,0 2.126,-0.935 2.126,-2.126 0,-1.162 -0.935,-2.098 -2.126,-2.098 -1.162,0 -2.097,0.936 -2.097,2.098 0,1.191 0.935,2.126 2.097,2.126 z"
         style="fill:black;fill-opacity:1;fill-rule:evenodd;stroke:black;stroke-width:0.96376;stroke-linecap:round;stroke-linejoin:round;stroke-miterlimit:10;stroke-dasharray:none;stroke-opacity:1"
         transform="matrix(1.3333333,0,0,-1.3333333,0,1122.5197)" />
    </g>
    <g
       id="g127">
      <path
         id="path128"
         d="m 341.348,411.958 c 1.162,0 2.098,-0.935 2.098,-2.126 0,-1.162 -0.936,-2.097 -2.098,-2.097 -1.162,0 -2.126,0.935 -2.126,2.097 0,1.191 0.964,2.126 2.126,2.126 z"
         style="fill:black;fill-opacity:1;fill-rule:evenodd;stroke:black;stroke-width:0.96376;stroke-linecap:round;stroke-linejoin:round;stroke-miterlimit:10;stroke-dasharray:none;stroke-opacity:1"
         transform="matrix(1.3333333,0,0,-1.3333333,0,1122.5197)" />
    </g>
    <g
       id="g128">
      <path
         id="path129"
         d="m 275.896,411.958 c 1.162,0 2.098,-0.935 2.098,-2.126 0,-1.162 -0.936,-2.097 -2.098,-2.097 -1.19,0 -2.126,0.935 -2.126,2.097 0,1.191 0.936,2.126 2.126,2.126 z"
         style="fill:black;fill-opacity:1;fill-rule:evenodd;stroke:black;stroke-width:0.96376;stroke-linecap:round;stroke-linejoin:round;stroke-miterlimit:10;stroke-dasharray:none;stroke-opacity:1"
         transform="matrix(1.3333333,0,0,-1.3333333,0,1122.5197)" />
    </g>
    <g
       id="g129">
      <text
         id="text129"
         xml:space="preserve"
         transform="matrix(1.3333333,0,0,1.3333333,381.20267,540.62502)"><tspan
           id="tspan129"
           style="font-variant:normal;font-weight:700;font-size:7.994px;font-family:'Noto Sans';writing-mode:lr-tb;fill:black;fill-opacity:1;fill-rule:nonzero;stroke:none"
           x="0"
           y="0">2</tspan></text>
    </g>
    <g
       id="g130">
      <text
         id="text130"
         xml:space="preserve"
         transform="matrix(1.3333333,0,0,1.3333333,390.04667,540.62502)"><tspan
           id="tspan130"
           style="font-variant:normal;font-weight:normal;font-size:7.994px;font-family:Arial;writing-mode:lr-tb;fill:black;fill-opacity:1;fill-rule:nonzero;stroke:none"
           x="0"
           y="0">×</tspan></text>
    </g>
    <g
       id="g131">
      <text
         id="text131"
         xml:space="preserve"
         transform="matrix(1.3333333,0,0,1.3333333,398.85333,540.62502)"><tspan
           id="tspan131"
           style="font-variant:normal;font-weight:700;font-size:7.994px;font-family:'Noto Sans';writing-mode:lr-tb;fill:black;fill-opacity:1;fill-rule:nonzero;stroke:none"
           x="0"
           dx="0 0.0079939999 0.015988 0.0079939999 0.039969999 0.0079939999 0.0079939999"
           y="0">SES5001</tspan></text>
    </g>
    <g
       id="g132">
      <text
         id="text132"
         xml:space="preserve"
         transform="matrix(1.3333333,0,0,1.3333333,386.79733,689.99169)"><tspan
           id="tspan132"
           style="font-variant:normal;font-weight:700;font-size:7.994px;font-family:'Noto Sans';writing-mode:lr-tb;fill:black;fill-opacity:1;fill-rule:nonzero;stroke:none"
           x="0"
           dx="0 0.0079939999 0.0079939999 0.039969999 -0.0079939999 0.031975999 0.0079939999 0.0079939999"
           y="0">1/2 L293</tspan></text>
    </g>
    <g
       id="g133">
      <text
         id="text133"
         xml:space="preserve"
         transform="matrix(1.3333333,0,0,1.3333333,421.94667,718.56502)"><tspan
           id="tspan133"
           style="font-variant:normal;font-weight:700;font-size:7.994px;font-family:'Noto Sans';writing-mode:lr-tb;fill:black;fill-opacity:1;fill-rule:nonzero;stroke:none"
           x="0"
           dx="0 0.0079939999 0.0079939999 0.0079939999 0.0079939999 0.0079939999 0.0079939999 0.0079939999 0.0079939999 0.0079939999 0.0079939999 0.0079939999"
           y="0">4, 5, 12, 13</tspan></text>
    </g>
    <g
       id="g134">
      <text
         id="text134"
         xml:space="preserve"
         transform="matrix(1.3333333,0,0,1.3333333,426.936,636.32235)"><tspan
           id="tspan134"
           style="font-variant:normal;font-weight:700;font-size:7.994px;font-family:'Noto Sans';writing-mode:lr-tb;fill:black;fill-opacity:1;fill-rule:nonzero;stroke:none"
           x="0"
           y="0">3</tspan></text>
    </g>
    <g
       id="g135">
      <text
         id="text135"
         xml:space="preserve"
         transform="matrix(1.3333333,0,0,1.3333333,391.068,636.32235)"><tspan
           id="tspan135"
           style="font-variant:normal;font-weight:700;font-size:7.994px;font-family:'Noto Sans';writing-mode:lr-tb;fill:black;fill-opacity:1;fill-rule:nonzero;stroke:none"
           x="0"
           y="0">6</tspan></text>
    </g>
    <g
       id="g136">
      <text
         id="text136"
         xml:space="preserve"
         transform="matrix(1.3333333,0,0,1.3333333,351.76,636.32235)"><tspan
           id="tspan136"
           style="font-variant:normal;font-weight:700;font-size:7.994px;font-family:'Noto Sans';writing-mode:lr-tb;fill:black;fill-opacity:1;fill-rule:nonzero;stroke:none"
           x="0"
           y="0">7</tspan></text>
    </g>
    <g
       id="g137">
      <text
         id="text137"
         xml:space="preserve"
         transform="matrix(1.3333333,0,0,1.3333333,325.38,667.46502)"><tspan
           id="tspan137"
           style="font-variant:normal;font-weight:700;font-size:7.994px;font-family:'Noto Sans';writing-mode:lr-tb;fill:black;fill-opacity:1;fill-rule:nonzero;stroke:none"
           x="0"
           y="0">8</tspan></text>
    </g>
    <g
       id="g138">
      <text
         id="text138"
         xml:space="preserve"
         transform="matrix(1.3333333,0,0,1.3333333,494.324,689.72635)"><tspan
           id="tspan138"
           style="font-variant:normal;font-weight:700;font-size:7.994px;font-family:'Noto Sans';writing-mode:lr-tb;fill:black;fill-opacity:1;fill-rule:nonzero;stroke:none"
           x="0"
           y="0">1</tspan></text>
    </g>
    <g
       id="g139">
      <text
         id="text139"
         xml:space="preserve"
         transform="matrix(1.3333333,0,0,1.3333333,466.20533,636.35969)"><tspan
           id="tspan139"
           style="font-variant:normal;font-weight:700;font-size:7.994px;font-family:'Noto Sans';writing-mode:lr-tb;fill:black;fill-opacity:1;fill-rule:nonzero;stroke:none"
           x="0"
           y="0">2</tspan></text>
    </g>
    <g
       id="g140">
      <text
         id="text140"
         xml:space="preserve"
         transform="matrix(1.3333333,0,0,1.3333333,491.452,651.32635)"><tspan
           id="tspan140"
           style="font-variant:normal;font-weight:700;font-size:7.994px;font-family:'Noto Sans';writing-mode:lr-tb;fill:black;fill-opacity:1;fill-rule:nonzero;stroke:none"
           x="0"
           dx="0 0.0079939999"
           y="0">16</tspan></text>
    </g>
    <g
       id="g141">
      <text
         id="text141"
         xml:space="preserve"
         transform="matrix(1.3333333,0,0,1.3333333,274.05333,532.08235)"><tspan
           id="tspan141"
           style="font-variant:normal;font-weight:700;font-size:7.994px;font-family:'Noto Sans';writing-mode:lr-tb;fill:black;fill-opacity:1;fill-rule:nonzero;stroke:none"
           x="0"
           y="0">V</tspan></text>
    </g>
    <g
       id="g142">
      <text
         id="text142"
         xml:space="preserve"
         transform="matrix(1.3333333,0,0,1.3333333,281.12133,534.35035)"><tspan
           id="tspan142"
           style="font-variant:normal;font-weight:700;font-size:6.491px;font-family:'Noto Sans';writing-mode:lr-tb;fill:black;fill-opacity:1;fill-rule:nonzero;stroke:none"
           x="0"
           dx="0 0 -0.032455001"
           y="0">CC2</tspan></text>
    </g>
    <g
       id="g143">
      <text
         id="text143"
         xml:space="preserve"
         transform="matrix(1.3333333,0,0,1.3333333,381.20267,601.24769)"><tspan
           id="tspan143"
           style="font-variant:normal;font-weight:700;font-size:7.994px;font-family:'Noto Sans';writing-mode:lr-tb;fill:black;fill-opacity:1;fill-rule:nonzero;stroke:none"
           x="0"
           y="0">2</tspan></text>
    </g>
    <g
       id="g144">
      <text
         id="text144"
         xml:space="preserve"
         transform="matrix(1.3333333,0,0,1.3333333,390.04667,601.24769)"><tspan
           id="tspan144"
           style="font-variant:normal;font-weight:normal;font-size:7.994px;font-family:Arial;writing-mode:lr-tb;fill:black;fill-opacity:1;fill-rule:nonzero;stroke:none"
           x="0"
           y="0">×</tspan></text>
    </g>
    <g
       id="g145">
      <text
         id="text145"
         xml:space="preserve"
         transform="matrix(1.3333333,0,0,1.3333333,398.85333,601.24769)"><tspan
           id="tspan145"
           style="font-variant:normal;font-weight:700;font-size:7.994px;font-family:'Noto Sans';writing-mode:lr-tb;fill:black;fill-opacity:1;fill-rule:nonzero;stroke:none"
           x="0"
           dx="0 0.0079939999 0.015988 0.0079939999 0.039969999 0.0079939999 0.0079939999"
           y="0">SES5001</tspan></text>
    </g>
    <g
       id="g146">
      <text
         id="text146"
         xml:space="preserve"
         transform="matrix(1.3333333,0,0,1.3333333,335.84933,621.35569)"><tspan
           id="tspan146"
           style="font-variant:normal;font-weight:700;font-size:7.994px;font-family:'Noto Sans';writing-mode:lr-tb;fill:black;fill-opacity:1;fill-rule:nonzero;stroke:none"
           x="0"
           dx="0 0.0079939999"
           y="0">2A</tspan></text>
    </g>
    <g
       id="g147">
      <text
         id="text147"
         xml:space="preserve"
         transform="matrix(1.3333333,0,0,1.3333333,475.57733,621.35569)"><tspan
           id="tspan147"
           style="font-variant:normal;font-weight:700;font-size:7.994px;font-family:'Noto Sans';writing-mode:lr-tb;fill:black;fill-opacity:1;fill-rule:nonzero;stroke:none"
           x="0"
           dx="0 0.0079939999"
           y="0">1A</tspan></text>
    </g>
    <g
       id="g148">
      <text
         id="text148"
         xml:space="preserve"
         transform="matrix(1.3333333,0,0,1.3333333,517.72,659.30235)"><tspan
           id="tspan148"
           style="font-variant:normal;font-weight:700;font-size:7.994px;font-family:'Noto Sans';writing-mode:lr-tb;fill:black;fill-opacity:1;fill-rule:nonzero;stroke:none"
           x="0"
           y="0">V</tspan></text>
    </g>
    <g
       id="g149">
      <text
         id="text149"
         xml:space="preserve"
         transform="matrix(1.3333333,0,0,1.3333333,524.82533,661.56902)"><tspan
           id="tspan149"
           style="font-variant:normal;font-weight:700;font-size:6.491px;font-family:'Noto Sans';writing-mode:lr-tb;fill:black;fill-opacity:1;fill-rule:nonzero;stroke:none"
           x="0"
           dx="0 0 -0.032455001"
           y="0">CC1</tspan></text>
    </g>
    <g
       id="g150">
      <text
         id="text150"
         xml:space="preserve"
         transform="matrix(1.3333333,0,0,1.3333333,516.812,699.44102)"><tspan
           id="tspan150"
           style="font-variant:normal;font-weight:700;font-size:7.994px;font-family:'Noto Sans';writing-mode:lr-tb;fill:black;fill-opacity:1;fill-rule:nonzero;stroke:none"
           x="0"
           dx="0 0.015988"
           y="0">EN</tspan></text>
    </g>
    <g
       id="g151">
      <text
         id="text151"
         xml:space="preserve"
         transform="matrix(1.3333333,0,0,1.3333333,408.11333,579.55435)"><tspan
           id="tspan151"
           style="font-variant:normal;font-weight:700;font-size:7.994px;font-family:'Noto Sans';writing-mode:lr-tb;fill:black;fill-opacity:1;fill-rule:nonzero;stroke:none"
           x="0"
           y="0">M</tspan></text>
    </g>
    <g
       id="g282">
      <text
         id="text282"
         xml:space="preserve"
         transform="matrix(1.3333333,0,0,1.3333333,401.91467,735.19435)"><tspan
           id="tspan282"
           style="font-variant:normal;font-weight:700;font-size:7.994px;font-family:'Noto Sans';writing-mode:lr-tb;fill:black;fill-opacity:1;fill-rule:nonzero;stroke:none"
           x="0"
           dx="0 0.0079939999 0.039969999"
           y="0">GND</tspan></text>
    </g>
    <g
       id="g348">
      <text
         id="text349"
         xml:space="preserve"
         transform="matrix(1.3333333,0,0,1.3333333,274.12933,757.15435)"><tspan
           id="tspan349"
           style="font-variant:normal;font-weight:700;font-size:10.006px;font-family:Arial;writing-mode:lr-tb;fill:black;fill-opacity:1;fill-rule:nonzero;stroke:none"
           x="0"
           dx="0 -0.010006 -0.020012001 -0.010006 -0.010006 -0.030018 0 -0.020012001 0 -0.030018"
           y="0">Figure 10.</tspan></text>
    </g>
    <g
       id="g349">
      <text
         id="text350"
         xml:space="preserve"
         transform="matrix(1.3333333,0,0,1.3333333,345.336,757.15435)"><tspan
           id="tspan350"
           style="font-variant:normal;font-weight:700;font-size:10.006px;font-family:Arial;writing-mode:lr-tb;fill:black;fill-opacity:1;fill-rule:nonzero;stroke:none"
           x="0"
           dx="0 -0.020012001 -0.020012001 -0.010006 0 -0.030018 0 -0.030018 -0.010006 0 -0.030018 -0.010006 -0.030018 0 0 -0.050030001 -0.020012001 0 -0.020012001 -0.030018 -0.010006 -0.010006 -0.010006 -0.020012001 -0.020012001 -0.010006 -0.030018 -0.010006 -0.010006 -0.010006"
           y="0">Bidirectional DC Motor Control</tspan></text>
    </g>
  </g>
</svg>
